<mxfile host="app.diagrams.net" modified="2020-09-17T21:56:40.347Z" agent="5.0 (Windows)" etag="qZTbdCcQ1LHohMeM5lnG" version="13.7.3" type="github">
  <diagram id="qHTniJWGzI7xZocLrNAh" name="Страница 1">
    <mxGraphModel dx="1422" dy="791" grid="1" gridSize="10" guides="1" tooltips="1" connect="1" arrows="1" fold="1" page="1" pageScale="1" pageWidth="827" pageHeight="1169" math="0" shadow="0">
      <root>
        <mxCell id="0" />
        <mxCell id="1" parent="0" />
        <mxCell id="uJCcx5iGv6yI-Hu4tMW_-1" value="Circle" style="swimlane;fontStyle=1;align=center;verticalAlign=top;childLayout=stackLayout;horizontal=1;startSize=26;horizontalStack=0;resizeParent=1;resizeParentMax=0;resizeLast=0;collapsible=1;marginBottom=0;" vertex="1" parent="1">
          <mxGeometry x="10" y="30" width="330" height="160" as="geometry" />
        </mxCell>
        <mxCell id="uJCcx5iGv6yI-Hu4tMW_-2" value="- radius: double&#xa;- color: String&#xa;" style="text;strokeColor=none;fillColor=none;align=left;verticalAlign=top;spacingLeft=4;spacingRight=4;overflow=hidden;rotatable=0;points=[[0,0.5],[1,0.5]];portConstraint=eastwest;" vertex="1" parent="uJCcx5iGv6yI-Hu4tMW_-1">
          <mxGeometry y="26" width="330" height="44" as="geometry" />
        </mxCell>
        <mxCell id="uJCcx5iGv6yI-Hu4tMW_-3" value="" style="line;strokeWidth=1;fillColor=none;align=left;verticalAlign=middle;spacingTop=-1;spacingLeft=3;spacingRight=3;rotatable=0;labelPosition=right;points=[];portConstraint=eastwest;" vertex="1" parent="uJCcx5iGv6yI-Hu4tMW_-1">
          <mxGeometry y="70" width="330" height="8" as="geometry" />
        </mxCell>
        <mxCell id="uJCcx5iGv6yI-Hu4tMW_-4" value="+ Circle(radius: double, color: String)&#xa;+ getRadius(): double&#xa;+ setRadius(radius: double): void&#xa;+ getColor(): String&#xa;+ setColor(color: String): void&#xa;&#xa;" style="text;strokeColor=none;fillColor=none;align=left;verticalAlign=top;spacingLeft=4;spacingRight=4;overflow=hidden;rotatable=0;points=[[0,0.5],[1,0.5]];portConstraint=eastwest;" vertex="1" parent="uJCcx5iGv6yI-Hu4tMW_-1">
          <mxGeometry y="78" width="330" height="82" as="geometry" />
        </mxCell>
        <mxCell id="uJCcx5iGv6yI-Hu4tMW_-5" value="Human" style="swimlane;fontStyle=1;align=center;verticalAlign=top;childLayout=stackLayout;horizontal=1;startSize=26;horizontalStack=0;resizeParent=1;resizeParentMax=0;resizeLast=0;collapsible=1;marginBottom=0;" vertex="1" parent="1">
          <mxGeometry x="10" y="210" width="330" height="210" as="geometry" />
        </mxCell>
        <mxCell id="uJCcx5iGv6yI-Hu4tMW_-6" value="- head: Head&#xa;- leg: Leg&#xa;- hand: Hand&#xa;&#xa;" style="text;strokeColor=none;fillColor=none;align=left;verticalAlign=top;spacingLeft=4;spacingRight=4;overflow=hidden;rotatable=0;points=[[0,0.5],[1,0.5]];portConstraint=eastwest;" vertex="1" parent="uJCcx5iGv6yI-Hu4tMW_-5">
          <mxGeometry y="26" width="330" height="54" as="geometry" />
        </mxCell>
        <mxCell id="uJCcx5iGv6yI-Hu4tMW_-7" value="" style="line;strokeWidth=1;fillColor=none;align=left;verticalAlign=middle;spacingTop=-1;spacingLeft=3;spacingRight=3;rotatable=0;labelPosition=right;points=[];portConstraint=eastwest;" vertex="1" parent="uJCcx5iGv6yI-Hu4tMW_-5">
          <mxGeometry y="80" width="330" height="8" as="geometry" />
        </mxCell>
        <mxCell id="uJCcx5iGv6yI-Hu4tMW_-8" value="+ Human(head: Head, leg: Leg, hand: Hand)&#xa;+ getHead(): Head&#xa;+ setHead(head: Head): void&#xa;+ getLeg(): Leg&#xa;+ setLeg(leg: Leg): void&#xa;+ getHand(): Hand&#xa;+ setHead(hand: Hand): void&#xa;+ toString(): String&#xa;" style="text;strokeColor=none;fillColor=none;align=left;verticalAlign=top;spacingLeft=4;spacingRight=4;overflow=hidden;rotatable=0;points=[[0,0.5],[1,0.5]];portConstraint=eastwest;" vertex="1" parent="uJCcx5iGv6yI-Hu4tMW_-5">
          <mxGeometry y="88" width="330" height="122" as="geometry" />
        </mxCell>
        <mxCell id="uJCcx5iGv6yI-Hu4tMW_-9" value="Book" style="swimlane;fontStyle=1;align=center;verticalAlign=top;childLayout=stackLayout;horizontal=1;startSize=26;horizontalStack=0;resizeParent=1;resizeParentMax=0;resizeLast=0;collapsible=1;marginBottom=0;" vertex="1" parent="1">
          <mxGeometry x="10" y="440" width="330" height="240" as="geometry" />
        </mxCell>
        <mxCell id="uJCcx5iGv6yI-Hu4tMW_-10" value="- name: String&#xa;- author: String&#xa;- yearOfWriting: int&#xa;" style="text;strokeColor=none;fillColor=none;align=left;verticalAlign=top;spacingLeft=4;spacingRight=4;overflow=hidden;rotatable=0;points=[[0,0.5],[1,0.5]];portConstraint=eastwest;" vertex="1" parent="uJCcx5iGv6yI-Hu4tMW_-9">
          <mxGeometry y="26" width="330" height="54" as="geometry" />
        </mxCell>
        <mxCell id="uJCcx5iGv6yI-Hu4tMW_-11" value="" style="line;strokeWidth=1;fillColor=none;align=left;verticalAlign=middle;spacingTop=-1;spacingLeft=3;spacingRight=3;rotatable=0;labelPosition=right;points=[];portConstraint=eastwest;" vertex="1" parent="uJCcx5iGv6yI-Hu4tMW_-9">
          <mxGeometry y="80" width="330" height="20" as="geometry" />
        </mxCell>
        <mxCell id="uJCcx5iGv6yI-Hu4tMW_-12" value="+ Book()&#xa;+ Book(name: String, author: String, yearOfWriting: int)&#xa;+ getName(): String&#xa;+ setName(name: String): void&#xa;+ getAuthor(): String&#xa;+ setAuthor(author: String): void&#xa;+ getYearOfWriting(): int&#xa;+ setYearOfWriting(yearOfWriting: int): void&#xa;&#xa;" style="text;strokeColor=none;fillColor=none;align=left;verticalAlign=top;spacingLeft=4;spacingRight=4;overflow=hidden;rotatable=0;points=[[0,0.5],[1,0.5]];portConstraint=eastwest;" vertex="1" parent="uJCcx5iGv6yI-Hu4tMW_-9">
          <mxGeometry y="100" width="330" height="140" as="geometry" />
        </mxCell>
      </root>
    </mxGraphModel>
  </diagram>
</mxfile>
